<svg xmlns="http://www.w3.org/2000/svg" width="216" height="300"><g class="layer"><g fill="#fff"><path d="M9.75 22.27q-1.05-.43-.15-1.15l6.34-4.96q.75-.59 1.64-.31c5.85 1.74 10.79 4.76 16.27 7.08q14.23 6 28.91 12.45c2.42 1.06 5.54 1.67 7.46-.7q4.76-5.91 13.37-8.26 29.26-7.98 54.58 2.89 3.52 1.51 6.63 5.86.63.89 1.69 1.11 2.17.43 4.46-.54 27.49-11.74 53.6-22.79a1.44 1.46-15.1 0 1 1.97 1.15q.12.87-.2 1.69-7.85 20.66-16.66 42.96-1.83 4.66-.29 8.99 8.32 23.61 18.05 51.05a6.46 6.61-47.3 0 1 .15 3.95q-10.08 37.57-22.4 72.35c-4.39 12.41-11.9 24.55-19.74 35.16q-13.15 17.75-25.1 35.05-3.74 5.42-9.15 9.39-8.27 6.07-18.45 12.52-2.58 1.62-5.12.66-10.39-3.96-19.88-11.77-6.25-5.16-15.95-18.64-10.51-14.66-21.76-29.45c-9.1-11.98-16.27-27.05-21.47-42.06q-8.95-25.87-20.08-60.72-1.49-4.63 0-8.83 8.98-25.44 18.2-51.29a4.29 4.38 44.8 0 0-.02-3.09q-5.51-14.41-11.57-29.8-1.36-3.46-3.36-6.24-.54-.77-.59-1.7-.07-1.43-1.37-1.98zm144.1 73.43q-8.22-1.22-16.17-2.49-3.73-.59-7.47 1.69-9.95 6.07-19.3 11.41a7.41 7.56-44.9 0 1-7.24 0q-9.59-5.53-19.64-11.42-3.95-2.31-7.91-1.63-12.4 2.16-26.72 3.79-2.75.31-4.73 2.17a2.17 2.17-19.1 0 0-.71 1.46q-2.08 25.94-.68 48.55c.95 15.14 10.15 30.27 18.03 43.82 3.08 5.32 5.56 12.31 7.29 18.24 5 17.14 12.05 44.29 31.04 50.04 10.42 3.16 21.47-.45 28.77-8.36q5.91-6.42 10.39-20.69 5.47-17.53 11.86-32.88 2.41-5.81 11.37-22.67 6.24-11.72 8.56-28.06 2.78-19.61.25-44.42-.15-1.53-.05-2.97.17-2.45-2.25-3.2c-4.71-1.43-9.78-1.62-14.69-2.35z"/><path d="M68.79 146.62q-13.95-5.56-14.47-22.06a2.36 2.4 8.6 0 1 3.12-2.35q9.91 3.53 19.81 7.67c7.59 3.2 7.74 18.15 6.49 24.34q-.69 3.39-4.07 3.22c-4.12-.23-4.68-7.32-8.02-9.37q-1.41-.85-2.86-1.44zm91.91-22.52c.58 9.62-5.35 18.99-13.73 22.48q-1.97.83-3.86 1.9-3.24 1.79-3.68 6.42a3.27 3.36 0 0 1-5.8 1.79q-3.58-4.49-3.32-11.23.56-14.31 13.68-18.55 6.85-2.23 14.03-4.66a2.05 2.09-10.8 0 1 2.68 1.86zm-32.81 92.1c-.17 9.13-5.47 26.12-13.66 31.23-7.2 4.5-15.32 1.06-19.4-6.07q-7.88-13.7-7.63-26.65.14-6.87 3.63-20.71 3.1-12.24 3.97-25.23a2.73 2.78 1 0 1 2.63-2.59c2.51-.09 4.68 1.67 7.3 1.98q5.63.64 11.01-2.09a2.69 2.76 0 0 1 3.88 2.1q2.3 17.07 6.56 35.09 1.8 7.62 1.71 12.94z"/></g></g></svg>