<svg xmlns="http://www.w3.org/2000/svg" viewBox="0 0 500 500"><path fill="#0e1115" d="M294.82 178.96a.29.29 0 0 0 .26.41q10.63.16 21.53 1.64c3.16.43 5.97 1.54 9.09 2.06 3.4.56 6.66 1.83 9.94 3.01q9.59 3.44 17.13 10.81c4.61 4.49 9.77 9.56 12.92 15.2 3.48 6.25 5.79 13.02 9.49 19.35q1.14 1.95 2.76 3.51c3.74 3.61 5.94 8.6 1.72 12.89-1.69 1.72-5.14 2.7-6.92.49-1.36-1.69-1.31-3.67-2.55-5.3a1.36 1.36 0 0 0-2.43.66c-.33 2.7 2.52 5.34 4.61 6.57 2.72 1.6 2.22 3.81.42 5.83q-10.69 11.99-26.69 14-9.79 1.24-18.71 1.28c-18.09.1-32.44-12.82-36.14-30.2q-.66-3.09-.37-6.21.24-2.5-2.26-2.21-.39.04-.73.28-2.17 1.49-2.22 3.94-.07 3.28.83 6.84 4.55 17.92 20.32 27.08c8.12 4.72 18.96 6.69 28.21 4.73a.81.81 0 0 1 .96.68q5.15 36.34-15.3 65.82c-3.13 4.52-6.97 8.6-10.54 12.91-5.19 6.27-1 10.97 3.74 15.24q2.11 1.91 5.02 3.39 10.16 5.19 12.87 7.5c4.49 3.84 6.45 12.88-2.23 12.91q-12.06.04-26.53-.44a5.56 5.53 62.6 0 1-2.9-.93l-24.22-16.3a2.81 2.81 0 0 0-2.37-.36c-7.94 2.32-16.88 4.02-25.31 3.35-4.64-.37-9.33-.3-13.95-.64q-17.83-1.33-35.55-2.03a.14.14 0 0 1-.04-.28q6.32-2.3 11.56-6.67c15.49-12.94 22.19-32.99 16.09-52.74-10.66-34.49-52.2-45.3-79.35-22.46q-2.05 1.72 0 3.43.12.1.24.17 2.34 1.46 4.52-.34c22.16-18.27 54.83-11.47 67.93 13.79 8.18 15.78 6.12 35.02-5.36 48.84-7.42 8.94-18.59 14.97-30.55 15.67q-2.55.15-5.14.56a1.23 1.21 12.1 0 0-.85.54q-.51.76 0 1.44.34.46 1.01.62 2.03.46 3.7.59 25.63 1.94 51.83 3.8c3.34.23 7.81.35 10.39 2.08 5.19 3.48 5.26 11.74-.86 14.57-1.77.82-3.89 1.53-5.85 1.37q-39-3.04-79.13-6.24-3.49-.28-6.27-2.41-31.8-24.38-34.97-63.44c-3.12-38.53 20.67-74.26 56.96-87.46 5.38-1.95 10.94-3.04 16.55-4.31q3.29-.75 6.77-1.17c9.14-1.11 17.7-2 26.42-1.25 4.5.39 9.07 1.18 13.62 1.41 4.59.24 8.92 1.32 13.56 1.43 10.38.24 19.43-7.14 22.8-16.46q1.58-4.39 1.49-12.22c-.13-11.22 1.73-21.6-4.15-31.99q-4.3-7.6-9.33-14.63c-3.41-4.77-6.04-8.74-7.7-14.79-4.22-15.41-2.76-29.68 1.6-44.79q.94-3.22 2.63-5.48c2.48-3.33 6.73-.23 8.28 2.34q4.17 6.9 8.95 12.44c3.51 4.07 7.7 8.33 10.49 13.01 1.35 2.27 2.86 4.33 3.95 6.79q3.01 6.77 4.81 12.1 1.78 5.26 2.63 13.93 1.1 11.25-3.13 20.45Zm-1.89.01c1.46-3.56 2.91-7.32 3.22-11.19q.74-9.38-1.77-20.14c-1.04-4.44-3.08-8.37-4.64-12.57-1.3-3.5-3.45-6.3-5.42-9.44-3.24-5.15-7.79-9.39-11.59-14.18q-3.67-4.62-7.18-10.43-1.12-1.86-3.3-2.67a1.79 1.78-63.9 0 0-2.14.74q-1.06 1.71-1.69 3.62c-3.96 11.93-5.71 24.82-3.79 36.97 1.1 6.98 3.05 13.86 7.02 19.31q7.48 10.3 12.32 19.15c4.67 8.55 4.14 19.43 3.41 29.49-.31 4.19.39 8.4-.78 12.52q-4.17 14.74-18.77 19.1c-4.05 1.2-9.37.88-13.52.28q-12.09-1.75-21.32-2.32-17.41-1.09-38.63 3.91c-39.55 9.34-67.62 46-65 86.86q2.41 37.44 31.77 61.59c2.21 1.82 4.66 4.02 7.6 4.25q33.76 2.73 78.38 6.16 5.81.45 8.79-3.88c2.88-4.16-1.15-9.82-5.74-10.15q-29.1-2.06-60.93-4.51-2.67-.21-3.39-2.78-.27-.95.26-1.74 1.79-2.66 4.99-2.52 5.6.25 11.5-1.61c26.75-8.43 38.74-39.22 23.95-63.25-13.54-21.97-43.23-27.02-63.59-10.45-5.04 4.11-12.1-1.87-7.26-5.88q14.85-12.28 32.81-12.67c23.43-.5 44.33 15.42 50.18 38.04 5.52 21.36-3.07 43.83-21.72 55.76q-1.22.78.23.86 14.58.85 27.61 1.8 5.78.43 16.44.61 6.61.11 11.56-.76 5.69-1 11.36-2.8a2.12 2.11 52.8 0 1 1.84.26l24.45 16.49a6.32 6.27-27.3 0 0 3.43 1.08q12.6.24 25.79.56 3.3.07 4.03-2.96c.87-3.57-2.69-6.98-5.53-8.66q-5.36-3.18-11.17-6.24-4.26-2.24-8.32-7.1c-4.43-5.31-3.19-10.27 1.39-15.08 16.01-16.79 24.79-37.08 25.33-60.65.11-4.38-.42-8.95-.81-13.24a.89.89 0 0 0-1.01-.8c-24.19 3.2-44.86-12.88-49.46-36.48q-.62-3.12-.07-5.66c.73-3.41 4.87-6.49 7.9-3.29q.82.87.8 2.17c-.22 16.92 11.35 30.91 27.62 34.49q4.94 1.09 11.62.55 6.11-.5 11.79-.94c11.14-.86 21.22-5.65 28.17-14.66a1.38 1.38 0 0 0-.44-2.06q-3.31-1.77-5-5.08c-2.9-5.67 4.9-9.2 6.55-1.57.53 2.44 2.83 3.49 4.92 1.71 3.82-3.24 1.9-7.8-1.16-10.7q-1.57-1.48-2.84-3.62-4.64-7.8-7.32-14.43-2.81-6.94-7.12-11.64c-5.94-6.49-11.94-13.01-20.05-16.97q-3.15-1.53-10.01-3.74c-2.5-.8-5-1.08-7.48-1.77q-3.02-.85-6.07-1.26-10.75-1.44-21.67-1.74a1.48 1.48 0 0 1-1.33-2.05Z"/><path fill="#0e1115" d="M292 114.74c.9-4.81 3.59-9.2 7-12.74a.79.79 0 0 1 .79-.22q2.87.77 3.96 3.82 6.01 16.93 11.51 33.46c1.39 4.15 3.37 8.18 4.59 12.36q1.47 4.99 1.16 10.46-.36 6.22-.76 11.84-.18 2.54-.74 4.79a.86.85 17.5 0 1-1.15.59c-5.98-2.35-12.07-1.93-18.34-1.86q-1.45.01-.89-1.31c3.69-8.73 4.56-18.97 1.62-28.12q-.99-3.1-2.07-6.12-2.34-6.57-7.26-13.39c-1.79-2.49.01-10.5.58-13.56Zm9.38 60.23a.36.36 0 0 0 .13.42q.43.31.95.25 7.77-.85 14.94 1.12a.7.7 0 0 0 .88-.61q.62-6.71.95-14.37c.39-8.73-3.2-14.83-5.85-22.74q-5.58-16.66-11.34-32.9-.44-1.25-1.45-2.11a.55.55 0 0 0-.74.02c-6.16 6.18-6.7 13.13-7.58 21.24a2.73 2.68-60.6 0 0 .51 1.89q7.33 9.98 10.36 22.7 3.07 12.92-1.76 25.09Zm40.26 37.69c-.27 2.43 2.54 4.19 2.06 6.83-.7 3.82-4.13 3.85-7 2.66q-1.94-.81-4.28-.64c-7.11.5-12.28-4.99-11.22-12 1.96-13.04 22-10.81 20.44 3.15Zm.2 5.55c-.98-2.25-2.51-4.03-2-6.61.73-3.64-1.93-7.16-5.13-8.43q-4.65-1.84-8.59 1.16c-6.83 5.18-2.5 16.7 6.18 15.31 2.22-.36 4.41.54 6.45 1.26q1.36.47 2.44-.31a1.97 1.97 0 0 0 .65-2.38Z"/></svg>